<?xml version="1.0" encoding="UTF-8" standalone="no"?>
<svg
   xmlns:dc="http://purl.org/dc/elements/1.1/"
   xmlns:cc="http://creativecommons.org/ns#"
   xmlns:rdf="http://www.w3.org/1999/02/22-rdf-syntax-ns#"
   xmlns:svg="http://www.w3.org/2000/svg"
   xmlns="http://www.w3.org/2000/svg"
   xmlns:sodipodi="http://sodipodi.sourceforge.net/DTD/sodipodi-0.dtd"
   xmlns:inkscape="http://www.inkscape.org/namespaces/inkscape"
   sodipodi:docname="manchester.svg"
   inkscape:version="1.0 (4035a4fb49, 2020-05-01)"
   id="svg8"
   version="1.1"
   viewBox="0 0 9.5111008 8.674736"
   height="8.674736mm"
   width="9.5111008mm">
  <defs
     id="defs2" />
  <sodipodi:namedview
     inkscape:window-maximized="0"
     inkscape:window-y="5"
     inkscape:window-x="367"
     inkscape:window-height="1030"
     inkscape:window-width="1424"
     fit-margin-bottom="0"
     fit-margin-right="0"
     fit-margin-left="0"
     fit-margin-top="0"
     showgrid="false"
     inkscape:document-rotation="0"
     inkscape:current-layer="layer1"
     inkscape:document-units="mm"
     inkscape:cy="9.9607355"
     inkscape:cx="19.692632"
     inkscape:zoom="7.9195959"
     inkscape:pageshadow="2"
     inkscape:pageopacity="0.0"
     borderopacity="1.0"
     bordercolor="#666666"
     pagecolor="#ffffff"
     id="base" />
  <metadata
     id="metadata5">
    <rdf:RDF>
      <cc:Work
         rdf:about="">
        <dc:format>image/svg+xml</dc:format>
        <dc:type
           rdf:resource="http://purl.org/dc/dcmitype/StillImage" />
        <dc:title></dc:title>
      </cc:Work>
    </rdf:RDF>
  </metadata>
  <g
     transform="translate(-88.077981,-27.400597)"
     id="layer1"
     inkscape:groupmode="layer"
     inkscape:label="Layer 1">
    <path
       d="m 91.180623,32.612325 c -0.416842,0 -0.773783,0.236608 -0.773783,0.584976 0,0.304835 0.170886,0.514703 0.957051,0.818162 0.338314,-0.192934 0.578097,-0.435751 0.578097,-0.751311 0,-0.398956 -0.338314,-0.651827 -0.761365,-0.651827 z m -0.138501,1.691534 c -0.412009,0.204646 -0.659377,0.49336 -0.659377,0.853017 0,0.470464 0.368618,0.779145 0.828181,0.779145 0.45339,0 0.827511,-0.291995 0.827511,-0.724006 0,-0.370699 -0.295592,-0.615315 -0.996315,-0.908156 m 0.435469,-0.214665 c 0.634577,0.259326 0.917787,0.541972 0.917787,0.967775 0,0.575345 -0.520242,1.018364 -1.190625,1.018364 -0.653204,0 -1.172739,-0.403896 -1.172739,-0.907416 0,-0.387914 0.301801,-0.703509 0.888858,-0.919585 -0.568466,-0.232869 -0.840598,-0.502991 -0.840598,-0.879193 0,-0.487116 0.502285,-0.896691 1.106558,-0.896691 0.604273,0 1.087966,0.353766 1.087966,0.796784 0,0.354154 -0.265288,0.625652 -0.797207,0.819962 m 4.982281,-1.044858 -1.242272,1.703952 h 1.242272 z m -1.527528,1.980953 v -0.128164 l 1.754223,-2.390352 h 0.163301 v 2.241515 h 0.454166 v 0.277001 h -0.454166 v 0.994234 h -0.389996 v -0.994234 h -1.527528 m -6.629083,0.994234 v -0.132962 c 0.522288,0 0.547088,-0.08957 0.547088,-0.361068 h 7.06e-4 v -2.575948 c -0.186055,0.15501 -0.510576,0.359657 -0.726934,0.45473 l -0.04614,-0.07786 c 0.336938,-0.215653 0.819926,-0.631119 0.959097,-0.819644 h 0.203271 v 2.943614 c 0.0069,0.355564 0.0744,0.423756 0.595312,0.436174 v 0.132962 z m 6.570487,-0.76895 h -0.104034 c -0.07511,0.334046 -0.172262,0.42224 -0.446476,0.427885 h -1.306371 c 0.68901,-0.605649 1.748719,-1.396083 1.748719,-2.232837 0,-0.555343 -0.423051,-0.973173 -0.999772,-0.973173 -0.594607,0 -1.045246,0.428872 -1.110686,1.055864 h 0.08749 c 0.126118,-0.445805 0.473357,-0.742774 0.863353,-0.742774 0.412715,0 0.726229,0.325226 0.726229,0.737694 0,0.986649 -1.606798,2.200699 -1.74872,2.339199 v 0.157092 h 2.185564 l 6.71e-4,7.06e-4 v -7.06e-4 h 0.0014 l 0.04618,-0.341065 h -7.06e-4 z m -3.380987,-6.983624 c -0.08957,-0.57464 -0.26596,-0.614574 -0.511952,-0.614574 h -1.555115 v 1.694956 h 1.217507 c 0.25079,0 0.369288,-0.03196 0.403754,-0.435434 h 0.132292 v 1.166918 h -0.132292 c -0.05581,-0.493747 -0.188101,-0.463444 -0.474063,-0.463444 h -1.147198 v 1.482761 c 0,0.320146 0.147461,0.382411 0.40446,0.382411 h 1.043164 c 0.478861,0 0.636658,-0.102659 0.804086,-0.689293 h 0.126789 l -0.108867,0.939412 h -3.443041 v -0.132291 c 0.557424,-0.01379 0.596018,-0.09052 0.596018,-0.514703 l 0.0028,-3.035794 c 0,-0.425133 -0.03927,-0.501615 -0.596019,-0.514703 v -0.132574 l 3.31075,0.0017 0.05443,0.864694 z m 3.056466,-0.141923 h 2.955185 l 0.08467,0.78479 h -0.102658 c -0.08537,-0.502285 -0.190853,-0.567055 -0.418818,-0.567055 h -0.793044 v 2.851855 c 0,0.307975 0.103328,0.416843 0.450603,0.416843 h 0.130916 v 0.119909 h -1.658479 v -0.119909 h 0.130245 c 0.34724,0 0.450603,-0.108868 0.450603,-0.416843 v -2.851855 h -0.792374 c -0.228071,0 -0.330023,0.06202 -0.416172,0.56776 h -0.102658 z m -2.089785,0.611858 c 0,-0.322474 0.288714,-0.517454 0.702804,-0.517454 0.432682,0 0.83439,0.27559 1.010109,0.690386 h 0.100577 l -0.08269,-0.616656 c -0.215653,-0.09853 -0.677969,-0.242147 -1.08451,-0.242147 -0.64008,0 -1.104476,0.415784 -1.104476,0.894645 0,1.008027 2.00159,1.232641 2.00159,2.06181 0,0.455154 -0.4451,0.649746 -0.865399,0.649746 -0.490608,0 -0.940506,-0.297921 -1.074173,-0.865964 h -0.110243 l 0.127458,0.858097 c 0.324521,0.09028 0.766199,0.193357 1.113438,0.193357 0.733813,0 1.267813,-0.473357 1.267813,-1.038083 0,-1.060415 -2.002297,-1.249892 -2.002297,-2.067737"
       style="fill:#001fd3;fill-opacity:1;fill-rule:nonzero;stroke:none;stroke-width:0.0352778"
       id="path847" />
  </g>
</svg>
